<svg xmlns="http://www.w3.org/2000/svg" viewBox="0 0 33.42 49.49"><defs><style>.cls-1{fill:#fff;}</style></defs><title>logo</title><g id="Layer_2" data-name="Layer 2"><g id="Layer_1-2" data-name="Layer 1"><path class="cls-1" d="M30.74,0H2.67A2.66,2.66,0,0,0,0,2.65V49.49H33.42V2.67A2.68,2.68,0,0,0,30.75,0ZM19,9.53a2.68,2.68,0,1,1,5.35-.33,1.82,1.82,0,0,1,0,.33v3.38a2.68,2.68,0,0,1-5.35.33,1.82,1.82,0,0,1,0-.33Zm0,15.33a2.68,2.68,0,1,1,5.35-.33,1.82,1.82,0,0,1,0,.33v3.38a2.68,2.68,0,0,1-5.35.33,1.82,1.82,0,0,1,0-.33ZM9,9.53a2.68,2.68,0,0,1,5.35-.33,1.82,1.82,0,0,1,0,.33v3.38A2.68,2.68,0,1,1,9,13.24a1.82,1.82,0,0,1,0-.33ZM9,24.86a2.68,2.68,0,1,1,5.35-.33,1.82,1.82,0,0,1,0,.33v3.38A2.68,2.68,0,0,1,9,28.57a1.82,1.82,0,0,1,0-.33ZM24.66,44.15H9V40.54a2.68,2.68,0,0,1,2.68-2.68H22a2.68,2.68,0,0,1,2.68,2.68h0Z"/></g></g></svg>